<?xml version="1.0" encoding="utf-8"?>
<svg viewBox="0 0 24 24" fill="none" xmlns="http://www.w3.org/2000/svg">
  <path d="M 2 10.684 C 2 6.59 2 4.544 3.289 3.272 C 4.577 2 6.652 2 10.801 2 L 13.001 2 C 17.15 2 19.225 2 20.513 3.272 C 21.802 4.544 21.802 6.59 21.802 10.684 L 21.802 12.856 C 21.802 16.95 21.802 18.997 20.513 20.269 C 19.225 21.54 17.15 21.54 13.001 21.54 L 10.801 21.54 C 6.652 21.54 4.577 21.54 3.289 20.269 C 2 18.997 2 16.95 2 12.856 L 2 10.684 Z" style="stroke: rgb(255, 255, 255); stroke-width: 2px;" transform="matrix(0.9999999999999999, 0, 0, 0.9999999999999999, 0, 0)"/>
  <circle cx="16.5" cy="7.5" r="1.5" style="stroke-width: 2px; stroke: rgb(255, 255, 255); fill: rgb(255, 255, 255);" transform="matrix(0.9999999999999999, 0, 0, 0.9999999999999999, 0, 0)"/>
  <circle cx="12" cy="12" r="3.5" style="stroke-width: 2px; stroke: rgb(255, 255, 255);" transform="matrix(0.9999999999999999, 0, 0, 0.9999999999999999, 0, 0)"/>
</svg>